<svg width="33" height="33" viewBox="0 0 33 33" fill="none" xmlns="http://www.w3.org/2000/svg">
<path d="M10.716 16.468C8.156 15.188 6.428 12.628 6.428 9.55598C6.428 5.33198 9.884 1.87598 14.108 1.87598C18.332 1.87598 21.788 5.33198 21.788 9.55598C21.788 13.716 18.524 17.108 14.364 17.236H14.3C7.964 17.236 2.78 22.42 2.78 28.756C2.78 29.14 2.524 29.396 2.14 29.396C1.756 29.396 1.5 29.14 1.5 28.756C1.5 22.932 5.404 18.004 10.716 16.468ZM14.108 15.956C17.628 15.956 20.508 13.076 20.508 9.55598C20.508 6.03598 17.628 3.15598 14.108 3.15598C10.588 3.15598 7.708 6.03598 7.708 9.55598C7.708 13.076 10.588 15.956 14.108 15.956ZM31.644 20.18L31.772 20.5L30.236 22.356C29.98 22.676 29.98 23.188 30.236 23.508L31.772 25.3L31.644 25.62C31.324 26.516 30.876 27.412 30.236 28.116L29.98 28.372L27.612 27.988C27.228 27.924 26.78 28.18 26.652 28.564L25.82 30.868L25.5 30.932C24.284 31.188 23.068 31.188 21.852 30.932L21.468 30.868L20.7 28.628C20.572 28.244 20.124 27.988 19.74 28.052L17.308 28.436L17.052 28.18C16.732 27.86 16.476 27.476 16.284 27.092C16.028 26.644 15.772 26.132 15.644 25.62L15.516 25.3L17.116 23.508C17.372 23.188 17.372 22.676 17.116 22.42L15.58 20.564L15.708 20.244C16.028 19.284 16.54 18.452 17.18 17.684L17.436 17.428L19.74 17.812C20.124 17.876 20.572 17.62 20.764 17.236L21.596 14.996L21.916 14.932C23.068 14.676 24.284 14.676 25.5 14.932L25.884 14.996L26.652 17.172C26.78 17.556 27.228 17.876 27.676 17.812L30.044 17.492L30.3 17.748C30.62 18.132 30.876 18.452 31.068 18.9C31.26 19.22 31.452 19.732 31.644 20.18ZM29.852 19.412C29.724 19.156 29.596 18.964 29.404 18.708L27.74 18.9C26.716 19.028 25.692 18.388 25.372 17.428L24.86 15.956C24.092 15.828 23.324 15.828 22.556 15.956L21.98 17.492C21.66 18.452 20.572 19.092 19.548 18.9L17.948 18.644C17.564 19.092 17.308 19.668 17.052 20.18L18.14 21.46C18.78 22.228 18.78 23.444 18.14 24.212L17.052 25.492C17.18 25.812 17.308 26.068 17.5 26.388C17.628 26.644 17.756 26.836 17.948 27.028L19.676 26.772C20.7 26.644 21.724 27.284 22.044 28.244L22.556 29.78C23.324 29.908 24.156 29.908 24.924 29.78L25.5 28.18C25.82 27.22 26.908 26.58 27.868 26.772L29.468 27.028C29.788 26.58 30.108 26.068 30.3 25.492L29.276 24.276C28.636 23.508 28.572 22.292 29.212 21.524L30.3 20.244C30.172 19.988 30.044 19.732 29.852 19.412ZM23.708 25.812C22.108 25.812 20.828 24.532 20.828 22.932C20.828 21.332 22.108 20.052 23.708 20.052C25.308 20.052 26.588 21.332 26.588 22.932C26.588 24.532 25.244 25.812 23.708 25.812ZM23.708 24.532C24.604 24.532 25.308 23.828 25.308 22.932C25.308 22.036 24.604 21.332 23.708 21.332C22.812 21.332 22.108 22.036 22.108 22.932C22.108 23.828 22.812 24.532 23.708 24.532Z" fill="black"/>
</svg>
